<?xml version="1.0" encoding="UTF-8" standalone="no"?>
<svg width="145px" height="153px" viewBox="0 0 145 153" version="1.1" xmlns="http://www.w3.org/2000/svg" xmlns:xlink="http://www.w3.org/1999/xlink" xmlns:sketch="http://www.bohemiancoding.com/sketch/ns">
    <!-- Generator: Sketch 3.1.1 (8761) - http://www.bohemiancoding.com/sketch -->
    <title>Group</title>
    <desc>Created with Sketch.</desc>
    <defs></defs>
    <g id="Page-1" stroke="none" stroke-width="1" fill="none" fill-rule="evenodd" sketch:type="MSPage">
        <g id="180---iPhone-6-Plus" sketch:type="MSArtboardGroup" transform="translate(-20.000000, -11.000000)">
            <g id="Group" sketch:type="MSLayerGroup" transform="translate(20.000000, 11.000000)">
                <path d="M59.109375,6.90820312 L111.052734,0.5 L144.918945,21.6328125 L94.8457031,36.8203125 L59.109375,6.90820312 Z" id="Path-6" fill="#FFFFFF" sketch:type="MSShapeGroup"></path>
                <path d="M0.495117187,16.1816406 L38.59375,36.7490234 L38.59375,152.13931 L0.810546875,129.597656 L0.49609375,18.5703125" id="Path-1" fill="#000000" sketch:type="MSShapeGroup"></path>
                <path d="M0.801757812,16.3017578 L10.6289062,13.59375 L46.7636719,35.8652344 L38.3447266,37.1572266 L3.07910156,17.7001953" id="Path-2" fill="#FFFFFF" sketch:type="MSShapeGroup"></path>
                <path d="M129.693359,137.474609 L97.9658203,28.5771484 L59.9228516,8.13867188 L87.8261719,115.433594 L129.693359,137.474609 Z" id="Path-4" fill="#000000" sketch:type="MSShapeGroup"></path>
                <path d="M56.5517578,73.2138672 L74.9160156,67.2226562 L115.598633,86.3369141 L69.9052734,118.018555 L56.5517578,73.2138672 Z" id="Path" fill="#FFFFFF" sketch:type="MSShapeGroup"></path>
                <path d="M46.6621094,35.0087891 L69.4345703,107.557617 L115.053711,86.4433594 L96.4023438,27.4150391 L145.00293,21.7294922 L145.00293,138.303774 L129.112583,138.303774 L120.359375,105.363281 L75.2685547,126.925781 L80.8339844,146.456055 L38.9677734,151.629883 L38.7822266,37.3251953 L44.9951172,36.0283203" id="Path-3" fill="#D8D8D8" sketch:type="MSShapeGroup"></path>
            </g>
        </g>
    </g>
</svg>